<svg xmlns="http://www.w3.org/2000/svg" xmlns:xlink="http://www.w3.org/1999/xlink" viewBox="0,0,256,256" width="250px" height="250px" fill-rule="nonzero" fill="#000000"><g fill="#000000" fill-rule="nonzero" stroke="none" stroke-width="1" stroke-linecap="butt" stroke-linejoin="miter" stroke-miterlimit="10" stroke-dasharray="" stroke-dashoffset="0" font-family="none" font-weight="none" font-size="none" text-anchor="none" style="mix-blend-mode: normal"><g transform="translate(0,0) scale(5.12,5.12)"><path d="M8.5,4c-1.41667,0 -2.60644,0.56726 -3.37305,1.42969c-0.76661,0.86243 -1.12695,1.97309 -1.12695,3.07031c0,1.09722 0.36035,2.20788 1.12695,3.07031c0.76661,0.86243 1.95638,1.42969 3.37305,1.42969c1.41667,0 2.60644,-0.56726 3.37305,-1.42969c0.76661,-0.86243 1.12695,-1.97309 1.12695,-3.07031c0,-1.09722 -0.36035,-2.20788 -1.12695,-3.07031c-0.76661,-0.86243 -1.95638,-1.42969 -3.37305,-1.42969zM19.5,4c-1.41667,0 -2.60644,0.56726 -3.37305,1.42969c-0.76661,0.86243 -1.12695,1.97309 -1.12695,3.07031c0,1.09722 0.36035,2.20788 1.12695,3.07031c0.76661,0.86243 1.95638,1.42969 3.37305,1.42969c1.41667,0 2.60644,-0.56726 3.37305,-1.42969c0.76661,-0.86243 1.12695,-1.97309 1.12695,-3.07031c0,-1.09722 -0.36035,-2.20788 -1.12695,-3.07031c-0.76661,-0.86243 -1.95638,-1.42969 -3.37305,-1.42969zM30.5,4c-1.41667,0 -2.60644,0.56726 -3.37305,1.42969c-0.76661,0.86243 -1.12695,1.97309 -1.12695,3.07031c0,1.09722 0.36035,2.20788 1.12695,3.07031c0.76661,0.86243 1.95638,1.42969 3.37305,1.42969c1.41667,0 2.60644,-0.56726 3.37305,-1.42969c0.76661,-0.86243 1.12695,-1.97309 1.12695,-3.07031c0,-1.09722 -0.36035,-2.20788 -1.12695,-3.07031c-0.76661,-0.86243 -1.95638,-1.42969 -3.37305,-1.42969zM41.5,4c-1.41667,0 -2.60644,0.56726 -3.37305,1.42969c-0.76661,0.86243 -1.12695,1.97309 -1.12695,3.07031c0,1.09722 0.36035,2.20788 1.12695,3.07031c0.76661,0.86243 1.95638,1.42969 3.37305,1.42969c1.41667,0 2.60644,-0.56726 3.37305,-1.42969c0.76661,-0.86243 1.12695,-1.97309 1.12695,-3.07031c0,-1.09722 -0.36035,-2.20788 -1.12695,-3.07031c-0.76661,-0.86243 -1.95638,-1.42969 -3.37305,-1.42969zM8.5,6c0.91667,0 1.47689,0.30774 1.87695,0.75781c0.40006,0.45007 0.62305,1.08941 0.62305,1.74219c0,0.65278 -0.22299,1.29212 -0.62305,1.74219c-0.40006,0.45007 -0.96029,0.75781 -1.87695,0.75781c-0.91667,0 -1.47689,-0.30774 -1.87695,-0.75781c-0.40006,-0.45007 -0.62305,-1.08941 -0.62305,-1.74219c0,-0.65278 0.22299,-1.29212 0.62305,-1.74219c0.40006,-0.45007 0.96029,-0.75781 1.87695,-0.75781zM19.5,6c0.91667,0 1.47689,0.30774 1.87695,0.75781c0.40006,0.45007 0.62305,1.08941 0.62305,1.74219c0,0.65278 -0.22299,1.29212 -0.62305,1.74219c-0.40006,0.45007 -0.96029,0.75781 -1.87695,0.75781c-0.91667,0 -1.47689,-0.30774 -1.87695,-0.75781c-0.40006,-0.45007 -0.62305,-1.08941 -0.62305,-1.74219c0,-0.65278 0.22299,-1.29212 0.62305,-1.74219c0.40006,-0.45007 0.96029,-0.75781 1.87695,-0.75781zM30.5,6c0.91667,0 1.47689,0.30774 1.87695,0.75781c0.40006,0.45007 0.62305,1.08941 0.62305,1.74219c0,0.65278 -0.22299,1.29212 -0.62305,1.74219c-0.40006,0.45007 -0.96029,0.75781 -1.87695,0.75781c-0.91667,0 -1.47689,-0.30774 -1.87695,-0.75781c-0.40006,-0.45007 -0.62305,-1.08941 -0.62305,-1.74219c0,-0.65278 0.22299,-1.29212 0.62305,-1.74219c0.40006,-0.45007 0.96029,-0.75781 1.87695,-0.75781zM41.5,6c0.91667,0 1.47689,0.30774 1.87695,0.75781c0.40006,0.45007 0.62305,1.08941 0.62305,1.74219c0,0.65278 -0.22299,1.29212 -0.62305,1.74219c-0.40006,0.45007 -0.96029,0.75781 -1.87695,0.75781c-0.91667,0 -1.47689,-0.30774 -1.87695,-0.75781c-0.40006,-0.45007 -0.62305,-1.08941 -0.62305,-1.74219c0,-0.65278 0.22299,-1.29212 0.62305,-1.74219c0.40006,-0.45007 0.96029,-0.75781 1.87695,-0.75781zM8.5,15c-1.41667,0 -2.60644,0.56726 -3.37305,1.42969c-0.76661,0.86243 -1.12695,1.97309 -1.12695,3.07031c0,1.09722 0.36035,2.20788 1.12695,3.07031c0.76661,0.86243 1.95638,1.42969 3.37305,1.42969c1.41667,0 2.60644,-0.56726 3.37305,-1.42969c0.76661,-0.86243 1.12695,-1.97309 1.12695,-3.07031c0,-1.09722 -0.36035,-2.20788 -1.12695,-3.07031c-0.76661,-0.86243 -1.95638,-1.42969 -3.37305,-1.42969zM19.5,15c-1.41667,0 -2.60644,0.56726 -3.37305,1.42969c-0.76661,0.86243 -1.12695,1.97309 -1.12695,3.07031c0,1.09722 0.36035,2.20788 1.12695,3.07031c0.76661,0.86243 1.95638,1.42969 3.37305,1.42969c1.41667,0 2.60644,-0.56726 3.37305,-1.42969c0.76661,-0.86243 1.12695,-1.97309 1.12695,-3.07031c0,-1.09722 -0.36035,-2.20788 -1.12695,-3.07031c-0.76661,-0.86243 -1.95638,-1.42969 -3.37305,-1.42969zM30.5,15c-1.41667,0 -2.60644,0.56726 -3.37305,1.42969c-0.76661,0.86243 -1.12695,1.97309 -1.12695,3.07031c0,1.09722 0.36035,2.20788 1.12695,3.07031c0.76661,0.86243 1.95638,1.42969 3.37305,1.42969c1.41667,0 2.60644,-0.56726 3.37305,-1.42969c0.76661,-0.86243 1.12695,-1.97309 1.12695,-3.07031c0,-1.09722 -0.36035,-2.20788 -1.12695,-3.07031c-0.76661,-0.86243 -1.95638,-1.42969 -3.37305,-1.42969zM41.5,15c-1.41667,0 -2.60644,0.56726 -3.37305,1.42969c-0.76661,0.86243 -1.12695,1.97309 -1.12695,3.07031c0,1.09722 0.36035,2.20788 1.12695,3.07031c0.76661,0.86243 1.95638,1.42969 3.37305,1.42969c1.41667,0 2.60644,-0.56726 3.37305,-1.42969c0.76661,-0.86243 1.12695,-1.97309 1.12695,-3.07031c0,-1.09722 -0.36035,-2.20788 -1.12695,-3.07031c-0.76661,-0.86243 -1.95638,-1.42969 -3.37305,-1.42969zM8.5,17c0.91667,0 1.47689,0.30774 1.87695,0.75781c0.40006,0.45007 0.62305,1.08941 0.62305,1.74219c0,0.65278 -0.22299,1.29212 -0.62305,1.74219c-0.40006,0.45007 -0.96029,0.75781 -1.87695,0.75781c-0.91667,0 -1.47689,-0.30774 -1.87695,-0.75781c-0.40006,-0.45007 -0.62305,-1.08941 -0.62305,-1.74219c0,-0.65278 0.22299,-1.29212 0.62305,-1.74219c0.40006,-0.45007 0.96029,-0.75781 1.87695,-0.75781zM19.5,17c0.91667,0 1.47689,0.30774 1.87695,0.75781c0.40006,0.45007 0.62305,1.08941 0.62305,1.74219c0,0.65278 -0.22299,1.29212 -0.62305,1.74219c-0.40006,0.45007 -0.96029,0.75781 -1.87695,0.75781c-0.91667,0 -1.47689,-0.30774 -1.87695,-0.75781c-0.40006,-0.45007 -0.62305,-1.08941 -0.62305,-1.74219c0,-0.65278 0.22299,-1.29212 0.62305,-1.74219c0.40006,-0.45007 0.96029,-0.75781 1.87695,-0.75781zM30.5,17c0.91667,0 1.47689,0.30774 1.87695,0.75781c0.40006,0.45007 0.62305,1.08941 0.62305,1.74219c0,0.65278 -0.22299,1.29212 -0.62305,1.74219c-0.40006,0.45007 -0.96029,0.75781 -1.87695,0.75781c-0.91667,0 -1.47689,-0.30774 -1.87695,-0.75781c-0.40006,-0.45007 -0.62305,-1.08941 -0.62305,-1.74219c0,-0.65278 0.22299,-1.29212 0.62305,-1.74219c0.40006,-0.45007 0.96029,-0.75781 1.87695,-0.75781zM41.5,17c0.91667,0 1.47689,0.30774 1.87695,0.75781c0.40006,0.45007 0.62305,1.08941 0.62305,1.74219c0,0.65278 -0.22299,1.29212 -0.62305,1.74219c-0.40006,0.45007 -0.96029,0.75781 -1.87695,0.75781c-0.91667,0 -1.47689,-0.30774 -1.87695,-0.75781c-0.40006,-0.45007 -0.62305,-1.08941 -0.62305,-1.74219c0,-0.65278 0.22299,-1.29212 0.62305,-1.74219c0.40006,-0.45007 0.96029,-0.75781 1.87695,-0.75781zM8.5,26c-1.41667,0 -2.60644,0.56726 -3.37305,1.42969c-0.76661,0.86243 -1.12695,1.97309 -1.12695,3.07031c0,1.09722 0.36035,2.20788 1.12695,3.07031c0.76661,0.86243 1.95638,1.42969 3.37305,1.42969c1.41667,0 2.60644,-0.56726 3.37305,-1.42969c0.76661,-0.86243 1.12695,-1.97309 1.12695,-3.07031c0,-1.09722 -0.36035,-2.20788 -1.12695,-3.07031c-0.76661,-0.86243 -1.95638,-1.42969 -3.37305,-1.42969zM19.5,26c-1.41667,0 -2.60644,0.56726 -3.37305,1.42969c-0.76661,0.86243 -1.12695,1.97309 -1.12695,3.07031c0,1.09722 0.36035,2.20788 1.12695,3.07031c0.76661,0.86243 1.95638,1.42969 3.37305,1.42969c1.41667,0 2.60644,-0.56726 3.37305,-1.42969c0.76661,-0.86243 1.12695,-1.97309 1.12695,-3.07031c0,-1.09722 -0.36035,-2.20788 -1.12695,-3.07031c-0.76661,-0.86243 -1.95638,-1.42969 -3.37305,-1.42969zM30.5,26c-1.41667,0 -2.60644,0.56726 -3.37305,1.42969c-0.76661,0.86243 -1.12695,1.97309 -1.12695,3.07031c0,1.09722 0.36035,2.20788 1.12695,3.07031c0.76661,0.86243 1.95638,1.42969 3.37305,1.42969c1.41667,0 2.60644,-0.56726 3.37305,-1.42969c0.76661,-0.86243 1.12695,-1.97309 1.12695,-3.07031c0,-1.09722 -0.36035,-2.20788 -1.12695,-3.07031c-0.76661,-0.86243 -1.95638,-1.42969 -3.37305,-1.42969zM41.5,26c-1.41667,0 -2.60644,0.56726 -3.37305,1.42969c-0.76661,0.86243 -1.12695,1.97309 -1.12695,3.07031c0,1.09722 0.36035,2.20788 1.12695,3.07031c0.76661,0.86243 1.95638,1.42969 3.37305,1.42969c1.41667,0 2.60644,-0.56726 3.37305,-1.42969c0.76661,-0.86243 1.12695,-1.97309 1.12695,-3.07031c0,-1.09722 -0.36035,-2.20788 -1.12695,-3.07031c-0.76661,-0.86243 -1.95638,-1.42969 -3.37305,-1.42969zM8.5,28c0.91667,0 1.47689,0.30774 1.87695,0.75781c0.40006,0.45007 0.62305,1.08941 0.62305,1.74219c0,0.65278 -0.22299,1.29212 -0.62305,1.74219c-0.40006,0.45007 -0.96029,0.75781 -1.87695,0.75781c-0.91667,0 -1.47689,-0.30774 -1.87695,-0.75781c-0.40006,-0.45007 -0.62305,-1.08941 -0.62305,-1.74219c0,-0.65278 0.22299,-1.29212 0.62305,-1.74219c0.40006,-0.45007 0.96029,-0.75781 1.87695,-0.75781zM19.5,28c0.91667,0 1.47689,0.30774 1.87695,0.75781c0.40006,0.45007 0.62305,1.08941 0.62305,1.74219c0,0.65278 -0.22299,1.29212 -0.62305,1.74219c-0.40006,0.45007 -0.96029,0.75781 -1.87695,0.75781c-0.91667,0 -1.47689,-0.30774 -1.87695,-0.75781c-0.40006,-0.45007 -0.62305,-1.08941 -0.62305,-1.74219c0,-0.65278 0.22299,-1.29212 0.62305,-1.74219c0.40006,-0.45007 0.96029,-0.75781 1.87695,-0.75781zM30.5,28c0.91667,0 1.47689,0.30774 1.87695,0.75781c0.40006,0.45007 0.62305,1.08941 0.62305,1.74219c0,0.65278 -0.22299,1.29212 -0.62305,1.74219c-0.40006,0.45007 -0.96029,0.75781 -1.87695,0.75781c-0.91667,0 -1.47689,-0.30774 -1.87695,-0.75781c-0.40006,-0.45007 -0.62305,-1.08941 -0.62305,-1.74219c0,-0.65278 0.22299,-1.29212 0.62305,-1.74219c0.40006,-0.45007 0.96029,-0.75781 1.87695,-0.75781zM41.5,28c0.91667,0 1.47689,0.30774 1.87695,0.75781c0.40006,0.45007 0.62305,1.08941 0.62305,1.74219c0,0.65278 -0.22299,1.29212 -0.62305,1.74219c-0.40006,0.45007 -0.96029,0.75781 -1.87695,0.75781c-0.91667,0 -1.47689,-0.30774 -1.87695,-0.75781c-0.40006,-0.45007 -0.62305,-1.08941 -0.62305,-1.74219c0,-0.65278 0.22299,-1.29212 0.62305,-1.74219c0.40006,-0.45007 0.96029,-0.75781 1.87695,-0.75781zM8.5,37c-1.41667,0 -2.60644,0.56726 -3.37305,1.42969c-0.76661,0.86243 -1.12695,1.97309 -1.12695,3.07031c0,1.09722 0.36035,2.20788 1.12695,3.07031c0.76661,0.86243 1.95638,1.42969 3.37305,1.42969c1.41667,0 2.60644,-0.56726 3.37305,-1.42969c0.76661,-0.86243 1.12695,-1.97309 1.12695,-3.07031c0,-1.09722 -0.36035,-2.20788 -1.12695,-3.07031c-0.76661,-0.86243 -1.95638,-1.42969 -3.37305,-1.42969zM19.5,37c-1.41667,0 -2.60644,0.56726 -3.37305,1.42969c-0.76661,0.86243 -1.12695,1.97309 -1.12695,3.07031c0,1.09722 0.36035,2.20788 1.12695,3.07031c0.76661,0.86243 1.95638,1.42969 3.37305,1.42969c1.41667,0 2.60644,-0.56726 3.37305,-1.42969c0.76661,-0.86243 1.12695,-1.97309 1.12695,-3.07031c0,-1.09722 -0.36035,-2.20788 -1.12695,-3.07031c-0.76661,-0.86243 -1.95638,-1.42969 -3.37305,-1.42969zM30.5,37c-1.41667,0 -2.60644,0.56726 -3.37305,1.42969c-0.76661,0.86243 -1.12695,1.97309 -1.12695,3.07031c0,1.09722 0.36035,2.20788 1.12695,3.07031c0.76661,0.86243 1.95638,1.42969 3.37305,1.42969c1.41667,0 2.60644,-0.56726 3.37305,-1.42969c0.76661,-0.86243 1.12695,-1.97309 1.12695,-3.07031c0,-1.09722 -0.36035,-2.20788 -1.12695,-3.07031c-0.76661,-0.86243 -1.95638,-1.42969 -3.37305,-1.42969zM41.5,37c-1.41667,0 -2.60644,0.56726 -3.37305,1.42969c-0.76661,0.86243 -1.12695,1.97309 -1.12695,3.07031c0,1.09722 0.36035,2.20788 1.12695,3.07031c0.76661,0.86243 1.95638,1.42969 3.37305,1.42969c1.41667,0 2.60644,-0.56726 3.37305,-1.42969c0.76661,-0.86243 1.12695,-1.97309 1.12695,-3.07031c0,-1.09722 -0.36035,-2.20788 -1.12695,-3.07031c-0.76661,-0.86243 -1.95638,-1.42969 -3.37305,-1.42969zM8.5,39c0.91667,0 1.47689,0.30774 1.87695,0.75781c0.40006,0.45007 0.62305,1.08941 0.62305,1.74219c0,0.65278 -0.22299,1.29212 -0.62305,1.74219c-0.40006,0.45007 -0.96029,0.75781 -1.87695,0.75781c-0.91667,0 -1.47689,-0.30774 -1.87695,-0.75781c-0.40006,-0.45007 -0.62305,-1.08941 -0.62305,-1.74219c0,-0.65278 0.22299,-1.29212 0.62305,-1.74219c0.40006,-0.45007 0.96029,-0.75781 1.87695,-0.75781zM19.5,39c0.91667,0 1.47689,0.30774 1.87695,0.75781c0.40006,0.45007 0.62305,1.08941 0.62305,1.74219c0,0.65278 -0.22299,1.29212 -0.62305,1.74219c-0.40006,0.45007 -0.96029,0.75781 -1.87695,0.75781c-0.91667,0 -1.47689,-0.30774 -1.87695,-0.75781c-0.40006,-0.45007 -0.62305,-1.08941 -0.62305,-1.74219c0,-0.65278 0.22299,-1.29212 0.62305,-1.74219c0.40006,-0.45007 0.96029,-0.75781 1.87695,-0.75781zM30.5,39c0.91667,0 1.47689,0.30774 1.87695,0.75781c0.40006,0.45007 0.62305,1.08941 0.62305,1.74219c0,0.65278 -0.22299,1.29212 -0.62305,1.74219c-0.40006,0.45007 -0.96029,0.75781 -1.87695,0.75781c-0.91667,0 -1.47689,-0.30774 -1.87695,-0.75781c-0.40006,-0.45007 -0.62305,-1.08941 -0.62305,-1.74219c0,-0.65278 0.22299,-1.29212 0.62305,-1.74219c0.40006,-0.45007 0.96029,-0.75781 1.87695,-0.75781zM41.5,39c0.91667,0 1.47689,0.30774 1.87695,0.75781c0.40006,0.45007 0.62305,1.08941 0.62305,1.74219c0,0.65278 -0.22299,1.29212 -0.62305,1.74219c-0.40006,0.45007 -0.96029,0.75781 -1.87695,0.75781c-0.91667,0 -1.47689,-0.30774 -1.87695,-0.75781c-0.40006,-0.45007 -0.62305,-1.08941 -0.62305,-1.74219c0,-0.65278 0.22299,-1.29212 0.62305,-1.74219c0.40006,-0.45007 0.96029,-0.75781 1.87695,-0.75781z"></path></g></g></svg>